<?xml version="1.0" encoding="UTF-8" standalone="no"?>
<svg
  
   id="svg2"
   xml:space="preserve"
   width="810.28003"
   height="260.02667"
   viewBox="0 0 810.28003 260.02667"
   sodipodi:docname="__Logotipo Civilsolo.eps">
   <defs
     id="defs6" /><sodipodi:namedview
     pagecolor="#ffffff"
     bordercolor="#666666"
     borderopacity="1"
     objecttolerance="10"
     gridtolerance="10"
     guidetolerance="10"
     inkscape:pageopacity="0"
     inkscape:pageshadow="2"
     inkscape:window-width="640"
     inkscape:window-height="480"
     id="namedview4" /><g
     id="g10"
     inkscape:groupmode="layer"
     inkscape:label="ink_ext_XXXXXX"
     transform="matrix(1.3333333,0,0,-1.3333333,0,260.02667)"><g
       id="g12"
       transform="scale(0.1)"><path
         d="m 1045.42,637.582 c 102.75,106.25 102.53,274.898 -0.48,380.898 -100.12,-107.308 -99.913,-273.851 0.48,-380.898"
         style="fill:#6b1124;fill-opacity:1;fill-rule:evenodd;stroke:none"
         id="path14" /><path
         d="m 1044.94,1018.48 v 451.7 h 376.18 v -444.36 c -106.77,99.62 -273.36,96.37 -376.18,-7.34"
         style="fill:#6b1124;fill-opacity:1;fill-rule:evenodd;stroke:none"
         id="path16" /><path
         d="M 332.883,380.898 V 1470.18 h 403.051 l 0.004,-396.36 C 600.961,1008.8 544.254,846.691 609.266,711.711 674.285,576.75 836.398,520.039 971.363,585.039 c 27.465,13.223 52.497,30.992 74.047,52.531 102.89,-103.261 269.14,-106.3 375.72,-6.851 V 380.898 H 332.883"
         style="fill:#6b1124;fill-opacity:1;fill-rule:evenodd;stroke:none"
         id="path18" /><path
         d="m 5510.02,731.07 h 76.48 c 42.53,0 70.64,5.371 84.61,15.969 13.97,10.602 20.88,30.41 20.88,59.43 v 55.742 c 0,29.027 -6.91,48.84 -20.88,59.43 -13.97,10.597 -42.08,15.968 -84.61,15.968 h -76.94 c -43.46,0 -71.87,-5.371 -85.23,-16.121 -13.51,-10.75 -20.27,-31.168 -20.27,-61.429 v -54.668 c 0,-28.403 7.07,-47.911 21.35,-58.5 14.13,-10.602 42.38,-15.821 84.61,-15.821 z m -32.55,-98.429 c -45.92,0 -79.55,2.148 -100.89,6.289 -21.35,4.148 -38.85,11.211 -52.21,21.199 -15.21,11.203 -26.11,26.101 -32.72,44.371 -6.75,18.281 -10.13,42.391 -10.13,72.641 V 884.48 c 0,33.02 3.38,59.122 10.13,78.317 6.61,19.195 17.51,34.402 32.72,45.763 13.2,9.83 30.86,16.89 52.82,21.19 21.96,4.14 55.13,6.3 99.82,6.3 h 141.58 c 44.69,0 78.17,-2.16 100.28,-6.3 22.11,-4.3 39.77,-11.36 52.82,-21.19 14.59,-11.212 25.34,-26.259 32.1,-45.458 6.75,-19.192 10.13,-43.911 10.13,-73.864 V 779.441 c 0,-30.25 -3.38,-54.972 -10.13,-73.859 -6.76,-19.043 -17.51,-34.25 -32.1,-45.453 -13.2,-9.988 -30.71,-17.051 -52.36,-21.199 -21.65,-4.141 -55.29,-6.289 -100.74,-6.289 h -141.12 z m -496.78,99.968 h 262.14 v -95.211 h -382.38 v 393.892 h 120.24 V 732.609 Z m -504.45,-1.539 h 76.47 c 42.54,0 70.64,5.371 84.62,15.969 13.97,10.602 20.88,30.41 20.88,59.43 v 55.742 c 0,29.027 -6.91,48.84 -20.88,59.43 -13.98,10.597 -42.08,15.968 -84.62,15.968 h -76.93 c -43.46,0 -71.87,-5.371 -85.23,-16.121 -13.51,-10.75 -20.27,-31.168 -20.27,-61.429 v -54.668 c 0,-28.403 7.07,-47.911 21.35,-58.5 14.12,-10.602 42.38,-15.821 84.61,-15.821 z m -32.56,-98.429 c -45.91,0 -79.54,2.148 -100.89,6.289 -21.34,4.148 -38.85,11.211 -52.21,21.199 -15.2,11.203 -26.1,26.101 -32.71,44.371 -6.75,18.281 -10.13,42.391 -10.13,72.641 V 884.48 c 0,33.02 3.38,59.122 10.13,78.317 6.61,19.195 17.51,34.402 32.71,45.763 13.21,9.83 30.87,16.89 52.83,21.19 21.96,4.14 55.13,6.3 99.82,6.3 h 141.58 c 44.68,0 78.16,-2.16 100.28,-6.3 22.11,-4.3 39.77,-11.36 52.82,-21.19 14.59,-11.212 25.34,-26.259 32.1,-45.458 6.75,-19.192 10.13,-43.911 10.13,-73.864 V 779.441 c 0,-30.25 -3.38,-54.972 -10.13,-73.859 -6.76,-19.043 -17.51,-34.25 -32.1,-45.453 -13.21,-9.988 -30.71,-17.051 -52.36,-21.199 -21.66,-4.141 -55.29,-6.289 -100.74,-6.289 h -141.13 z m -746.93,135.75 118.86,0.148 v -7.059 c 0,-14.898 3.69,-24.878 10.91,-29.949 7.21,-5.222 22.26,-7.832 45.29,-7.832 h 151.11 c 14.9,0 25.49,2.461 31.79,7.52 6.29,5.07 9.52,13.371 9.52,24.883 0,11.828 -3.68,20.429 -10.9,25.488 -7.37,5.07 -23.19,8.609 -47.3,10.289 l -188.88,4.301 c -47.3,1.39 -79.24,10.289 -95.83,26.879 -16.73,16.582 -25.03,46.679 -25.03,90.453 0,22.57 2.15,41.301 6.61,55.89 4.45,14.586 11.52,26.871 21.19,36.548 11.36,10.91 26.26,18.58 44.84,23.19 18.58,4.61 48.68,6.91 90.45,6.91 h 183.66 c 45.45,0 78.16,-8.29 98.28,-24.88 19.96,-16.584 29.94,-43.459 29.94,-80.619 0,-2.61 0,-5.219 0,-7.992 -0.15,-2.918 -0.46,-7.52 -1.07,-13.821 H 4054.4 v 1.692 c 0,13.058 -3.22,22.73 -9.83,29.34 -6.6,6.589 -16.58,9.82 -29.79,9.82 h -138.67 c -23.18,0 -38.38,-2.301 -45.75,-6.91 -7.37,-4.598 -11.06,-12.59 -11.06,-24.11 0,-11.211 3.38,-19.351 10.13,-24.422 6.61,-5.058 18.89,-8.289 36.86,-9.668 l 197.94,-3.218 c 45.15,-1.231 76.94,-11.371 95.36,-30.41 18.43,-19.043 27.64,-51.602 27.64,-97.672 0,-27.328 -3.38,-48.52 -10.13,-63.418 -6.91,-14.891 -18.27,-27.793 -34.4,-38.391 -10.59,-6.601 -24.88,-11.512 -43,-14.43 -18.27,-2.921 -44.53,-4.3 -78.93,-4.3 h -160.32 c -65.72,0 -109.64,7.371 -131.91,22.109 -22.27,14.738 -33.32,42.23 -33.32,82.309 0,2.3 0.15,6.3 0.46,11.671 0.15,5.379 0.61,11.829 1.07,19.661 z m -304.51,-35.782 h 262.13 V 637.398 H 3272 v 393.892 h 120.24 V 732.609 Z m -213.3,-95.211 h -120.39 v 393.892 h 120.39 V 637.398 Z m -448.09,111.032 157.09,282.86 H 3015.7 L 2805.63,637.398 H 2659.9 l -208.23,393.892 h 131.3 L 2730.85,748.43 Z M 2401.61,637.398 h -120.39 v 393.892 h 120.39 V 637.398 Z m -317.41,251.84 v 3.992 c 0,15.36 -5.07,26.571 -15.2,33.79 -10.14,7.062 -26.26,10.589 -48.22,10.589 h -96.29 c -41.31,0 -67.72,-4.91 -79.54,-14.89 -11.83,-9.989 -17.66,-30.867 -17.66,-62.66 v -54.668 c 0,-28.403 6.6,-47.911 19.66,-58.5 13.05,-10.602 38.85,-15.821 77.54,-15.821 h 69.72 c 38.24,0 63.42,3.84 75.4,11.52 11.82,7.68 17.81,21.961 17.81,42.691 v 4.149 h 121.93 c 0,-0.469 0.16,-1.391 0.31,-2.77 0.46,-11.519 0.77,-20.121 0.77,-25.801 0,-25.179 -3.23,-45.91 -9.53,-62.339 -6.29,-16.438 -16.27,-29.489 -29.94,-39.469 -12.9,-9.52 -30.1,-16.281 -51.44,-20.27 -21.35,-4.14 -52.83,-6.14 -94.29,-6.14 h -134.37 c -41.15,0 -71.41,2.148 -90.75,6.597 -19.35,4.453 -35.94,11.832 -49.76,22.422 -15.81,12.59 -27.33,27.949 -34.55,46.219 -7.22,18.281 -10.9,41.312 -10.9,69.262 V 884.48 c 0,56.36 13.36,95.825 40.23,118.09 26.88,22.27 75.4,33.48 145.73,33.48 h 134.37 c 43.15,0 75.09,-2 95.52,-5.84 20.42,-3.84 36.55,-10.44 48.37,-19.5 12.44,-9.67 21.65,-22.421 27.64,-38.546 5.99,-16.121 8.91,-36.394 8.91,-60.652 0,-5.84 0,-10.293 -0.16,-13.364 -0.15,-3.226 -0.31,-6.148 -0.76,-8.91 H 2084.2 v 0"
         style="fill:#6b1124;fill-opacity:1;fill-rule:evenodd;stroke:none"
         id="path20" /></g></g></svg>
